<mxfile host="app.diagrams.net" agent="Mozilla/5.0 (Macintosh; Intel Mac OS X 10_15_7) AppleWebKit/537.36 (KHTML, like Gecko) Chrome/131.0.0.0 Safari/537.36" version="26.0.3">
  <diagram name="Page-1" id="_imrvlWbsSN5C76807I3">
    <mxGraphModel dx="1434" dy="1861" grid="1" gridSize="10" guides="1" tooltips="1" connect="1" arrows="1" fold="1" page="1" pageScale="1" pageWidth="850" pageHeight="1100" math="0" shadow="0">
      <root>
        <mxCell id="0" />
        <mxCell id="1" parent="0" />
        <mxCell id="knXKGDjNSvYh3iaHtXok-6" value="" style="rounded=1;whiteSpace=wrap;html=1;dashed=1;fillColor=#f5f5f5;fontColor=#333333;strokeColor=#666666;" vertex="1" parent="1">
          <mxGeometry x="460" y="-50" width="590" height="390" as="geometry" />
        </mxCell>
        <mxCell id="VXmfnzUb6QXnnJNoAkKk-20" style="edgeStyle=orthogonalEdgeStyle;rounded=0;orthogonalLoop=1;jettySize=auto;html=1;entryX=0.5;entryY=0;entryDx=0;entryDy=0;" parent="1" source="VXmfnzUb6QXnnJNoAkKk-6" target="VXmfnzUb6QXnnJNoAkKk-7" edge="1">
          <mxGeometry relative="1" as="geometry" />
        </mxCell>
        <mxCell id="VXmfnzUb6QXnnJNoAkKk-21" style="edgeStyle=orthogonalEdgeStyle;rounded=0;orthogonalLoop=1;jettySize=auto;html=1;" parent="1" source="VXmfnzUb6QXnnJNoAkKk-6" target="VXmfnzUb6QXnnJNoAkKk-17" edge="1">
          <mxGeometry relative="1" as="geometry" />
        </mxCell>
        <mxCell id="VXmfnzUb6QXnnJNoAkKk-6" value="CF（DNS）" style="rounded=0;whiteSpace=wrap;html=1;" parent="1" vertex="1">
          <mxGeometry x="470" y="-190" width="120" height="60" as="geometry" />
        </mxCell>
        <mxCell id="VXmfnzUb6QXnnJNoAkKk-23" value="" style="edgeStyle=orthogonalEdgeStyle;rounded=0;orthogonalLoop=1;jettySize=auto;html=1;" parent="1" source="VXmfnzUb6QXnnJNoAkKk-7" target="VXmfnzUb6QXnnJNoAkKk-22" edge="1">
          <mxGeometry relative="1" as="geometry" />
        </mxCell>
        <UserObject label="api-backend.yescoin.fun" link="http://api-backend.yescoin.fun/yesCoin/health" id="VXmfnzUb6QXnnJNoAkKk-7">
          <mxCell style="text;whiteSpace=wrap;strokeColor=default;" parent="1" vertex="1">
            <mxGeometry x="600" y="-110" width="160" height="40" as="geometry" />
          </mxCell>
        </UserObject>
        <mxCell id="VXmfnzUb6QXnnJNoAkKk-15" value="" style="edgeStyle=orthogonalEdgeStyle;rounded=0;orthogonalLoop=1;jettySize=auto;html=1;" parent="1" source="VXmfnzUb6QXnnJNoAkKk-8" target="VXmfnzUb6QXnnJNoAkKk-14" edge="1">
          <mxGeometry relative="1" as="geometry" />
        </mxCell>
        <mxCell id="VXmfnzUb6QXnnJNoAkKk-8" value="" style="shape=mxgraph.gcp2.doubleRect;strokeColor=#dddddd;shadow=1;strokeWidth=1;rounded=1;absoluteArcSize=1;arcSize=2;" parent="1" vertex="1">
          <mxGeometry x="191" y="80" width="148" height="68" as="geometry" />
        </mxCell>
        <mxCell id="VXmfnzUb6QXnnJNoAkKk-9" value="&lt;font color=&quot;#000000&quot;&gt;CF&lt;/font&gt;&lt;br&gt;Cloud CDN" style="editableCssRules=.*;html=1;fontColor=#999999;shape=image;verticalLabelPosition=middle;verticalAlign=middle;labelPosition=right;align=left;spacingLeft=20;part=1;points=[];imageAspect=0;image=data:image/svg+xml,PHN2ZyB4bWxucz0iaHR0cDovL3d3dy53My5vcmcvMjAwMC9zdmciIHhtbG5zOnY9Imh0dHBzOi8vdmVjdGEuaW8vbmFubyIgd2lkdGg9IjIwIiBoZWlnaHQ9IjIwIiB2aWV3Qm94PSIwIDAgMjAgMjAiPiYjeGE7CTxzdHlsZSB0eXBlPSJ0ZXh0L2NzcyI+JiN4YTsJLnN0MHtmaWxsOiM0Mjg1ZjQ7fSYjeGE7CS5zdDF7ZmlsbDojNjY5ZGY2O30mI3hhOwkuc3Qye2ZpbGw6I2FlY2JmYTt9JiN4YTsJPC9zdHlsZT4mI3hhOwk8cGF0aCBjbGFzcz0ic3QxIiBkPSJNMTMuMTMgNS42M1YzLjIxTDEwIDB2Mi40MXptMy43NSA3LjVMMjAgMTBoLTIuNWwtMy4xMiAzLjEzem0tMTMuNzUgMEwwIDEwaDIuNWwzLjEzIDMuMTN6bTEwIDEuMjV2Mi40MUwxMCAyMHYtMi40MXoiIGZpbGwtcnVsZT0iZXZlbm9kZCIvPiYjeGE7CTxwYXRoIGNsYXNzPSJzdDIiIGQ9Ik02Ljg4IDUuNjNMMTAgMi40MVYwTDYuODggMy4yMXpNMTcuNSAxMEgyMGwtMy4xMi0zLjEyaC0yLjV6bS0xNSAwSDBsMy4xMy0zLjEyaDIuNXptNC4zOCA0LjM4TDEwIDE3LjU5VjIwbC0zLjEyLTMuMjF6bTAtNy41aDYuMjV2Ni4yNUg2Ljg4eiIgZmlsbC1ydWxlPSJldmVub2RkIi8+JiN4YTsJPHBhdGggY2xhc3M9InN0MSIgZD0iTTYuODggMTMuMTNsNi4yNS02LjI1djYuMjV6IiBmaWxsLXJ1bGU9ImV2ZW5vZGQiLz4mI3hhOwk8cGF0aCBjbGFzcz0ic3QwIiBkPSJNMTAgMTBsMy4xMy0zLjEydjYuMjV6IiBmaWxsLXJ1bGU9ImV2ZW5vZGQiLz4mI3hhOzwvc3ZnPg==;" parent="VXmfnzUb6QXnnJNoAkKk-8" vertex="1">
          <mxGeometry width="30" height="30" relative="1" as="geometry">
            <mxPoint x="15" y="15" as="offset" />
          </mxGeometry>
        </mxCell>
        <mxCell id="VXmfnzUb6QXnnJNoAkKk-14" value="对象存储&lt;div&gt;（前端静态资源）&lt;/div&gt;" style="whiteSpace=wrap;html=1;strokeColor=#dddddd;shadow=1;strokeWidth=1;rounded=1;arcSize=2;" parent="1" vertex="1">
          <mxGeometry x="200" y="200" width="130" height="60" as="geometry" />
        </mxCell>
        <mxCell id="VXmfnzUb6QXnnJNoAkKk-18" style="edgeStyle=orthogonalEdgeStyle;rounded=0;orthogonalLoop=1;jettySize=auto;html=1;entryX=0.5;entryY=0;entryDx=0;entryDy=0;" parent="1" source="VXmfnzUb6QXnnJNoAkKk-17" target="VXmfnzUb6QXnnJNoAkKk-8" edge="1">
          <mxGeometry relative="1" as="geometry" />
        </mxCell>
        <mxCell id="VXmfnzUb6QXnnJNoAkKk-17" value="Telegram H5" style="shape=process;whiteSpace=wrap;html=1;backgroundOutline=1;" parent="1" vertex="1">
          <mxGeometry x="330" y="-60" width="120" height="60" as="geometry" />
        </mxCell>
        <mxCell id="VXmfnzUb6QXnnJNoAkKk-26" value="" style="edgeStyle=orthogonalEdgeStyle;rounded=0;orthogonalLoop=1;jettySize=auto;html=1;" parent="1" source="VXmfnzUb6QXnnJNoAkKk-22" target="VXmfnzUb6QXnnJNoAkKk-25" edge="1">
          <mxGeometry relative="1" as="geometry" />
        </mxCell>
        <mxCell id="VXmfnzUb6QXnnJNoAkKk-22" value="AWS ELB" style="whiteSpace=wrap;html=1;" parent="1" vertex="1">
          <mxGeometry x="620" y="-30" width="120" height="50" as="geometry" />
        </mxCell>
        <UserObject label="frontend.yescoin.fun" link="http://api-backend.yescoin.fun/yesCoin/health" id="VXmfnzUb6QXnnJNoAkKk-24">
          <mxCell style="text;whiteSpace=wrap;" parent="1" vertex="1">
            <mxGeometry x="270" y="-90" width="160" height="40" as="geometry" />
          </mxCell>
        </UserObject>
        <mxCell id="VXmfnzUb6QXnnJNoAkKk-25" value="" style="whiteSpace=wrap;html=1;" parent="1" vertex="1">
          <mxGeometry x="525" y="70" width="310" height="180" as="geometry" />
        </mxCell>
        <mxCell id="VXmfnzUb6QXnnJNoAkKk-27" value="AWS EKS" style="text;html=1;align=center;verticalAlign=middle;whiteSpace=wrap;rounded=0;fillColor=#dae8fc;strokeColor=#6c8ebf;" parent="1" vertex="1">
          <mxGeometry x="525" y="70" width="60" height="30" as="geometry" />
        </mxCell>
        <mxCell id="VXmfnzUb6QXnnJNoAkKk-32" value="" style="edgeStyle=orthogonalEdgeStyle;rounded=0;orthogonalLoop=1;jettySize=auto;html=1;" parent="1" source="VXmfnzUb6QXnnJNoAkKk-28" target="VXmfnzUb6QXnnJNoAkKk-31" edge="1">
          <mxGeometry relative="1" as="geometry" />
        </mxCell>
        <mxCell id="VXmfnzUb6QXnnJNoAkKk-28" value="Ingress nignx" style="rounded=1;whiteSpace=wrap;html=1;" parent="1" vertex="1">
          <mxGeometry x="620" y="100" width="120" height="32" as="geometry" />
        </mxCell>
        <mxCell id="VXmfnzUb6QXnnJNoAkKk-38" value="" style="edgeStyle=orthogonalEdgeStyle;rounded=0;orthogonalLoop=1;jettySize=auto;html=1;" parent="1" source="VXmfnzUb6QXnnJNoAkKk-31" target="VXmfnzUb6QXnnJNoAkKk-37" edge="1">
          <mxGeometry relative="1" as="geometry" />
        </mxCell>
        <mxCell id="VXmfnzUb6QXnnJNoAkKk-31" value="yescoin-backend" style="aspect=fixed;sketch=0;html=1;dashed=0;whitespace=wrap;verticalLabelPosition=bottom;verticalAlign=top;fillColor=#2875E2;strokeColor=#ffffff;points=[[0.005,0.63,0],[0.1,0.2,0],[0.9,0.2,0],[0.5,0,0],[0.995,0.63,0],[0.72,0.99,0],[0.5,1,0],[0.28,0.99,0]];shape=mxgraph.kubernetes.icon2;kubernetesLabel=1;prIcon=pod" parent="1" vertex="1">
          <mxGeometry x="655" y="170" width="50" height="48" as="geometry" />
        </mxCell>
        <mxCell id="VXmfnzUb6QXnnJNoAkKk-33" value="" style="outlineConnect=0;dashed=0;verticalLabelPosition=bottom;verticalAlign=top;align=center;html=1;shape=mxgraph.aws3.mysql_db_instance;fillColor=#2E73B8;gradientColor=none;" parent="1" vertex="1">
          <mxGeometry x="960" y="70" width="60" height="64.5" as="geometry" />
        </mxCell>
        <mxCell id="VXmfnzUb6QXnnJNoAkKk-34" value="Redis" style="outlineConnect=0;dashed=0;verticalLabelPosition=bottom;verticalAlign=top;align=center;html=1;shape=mxgraph.aws3.redis;fillColor=#2E73B8;gradientColor=none;" parent="1" vertex="1">
          <mxGeometry x="970" y="230" width="60" height="63" as="geometry" />
        </mxCell>
        <mxCell id="VXmfnzUb6QXnnJNoAkKk-35" style="rounded=0;orthogonalLoop=1;jettySize=auto;html=1;entryX=0.995;entryY=0.63;entryDx=0;entryDy=0;entryPerimeter=0;" parent="1" source="VXmfnzUb6QXnnJNoAkKk-33" target="VXmfnzUb6QXnnJNoAkKk-31" edge="1">
          <mxGeometry relative="1" as="geometry" />
        </mxCell>
        <mxCell id="VXmfnzUb6QXnnJNoAkKk-36" style="rounded=0;orthogonalLoop=1;jettySize=auto;html=1;entryX=0.995;entryY=0.63;entryDx=0;entryDy=0;entryPerimeter=0;" parent="1" source="VXmfnzUb6QXnnJNoAkKk-34" target="VXmfnzUb6QXnnJNoAkKk-31" edge="1">
          <mxGeometry relative="1" as="geometry" />
        </mxCell>
        <mxCell id="VXmfnzUb6QXnnJNoAkKk-37" value="nacos" style="aspect=fixed;sketch=0;html=1;dashed=0;whitespace=wrap;verticalLabelPosition=bottom;verticalAlign=top;fillColor=#2875E2;strokeColor=#ffffff;points=[[0.005,0.63,0],[0.1,0.2,0],[0.9,0.2,0],[0.5,0,0],[0.995,0.63,0],[0.72,0.99,0],[0.5,1,0],[0.28,0.99,0]];shape=mxgraph.kubernetes.icon2;kubernetesLabel=1;prIcon=pod" parent="1" vertex="1">
          <mxGeometry x="560" y="170" width="50" height="48" as="geometry" />
        </mxCell>
        <mxCell id="knXKGDjNSvYh3iaHtXok-2" style="edgeStyle=orthogonalEdgeStyle;rounded=0;orthogonalLoop=1;jettySize=auto;html=1;entryX=0.5;entryY=1;entryDx=0;entryDy=0;" edge="1" parent="1" source="knXKGDjNSvYh3iaHtXok-1" target="VXmfnzUb6QXnnJNoAkKk-25">
          <mxGeometry relative="1" as="geometry">
            <Array as="points">
              <mxPoint x="680" y="428" />
            </Array>
          </mxGeometry>
        </mxCell>
        <mxCell id="knXKGDjNSvYh3iaHtXok-3" value="Github CiCD" style="edgeLabel;html=1;align=center;verticalAlign=middle;resizable=0;points=[];" vertex="1" connectable="0" parent="knXKGDjNSvYh3iaHtXok-2">
          <mxGeometry x="-0.04" y="7" relative="1" as="geometry">
            <mxPoint as="offset" />
          </mxGeometry>
        </mxCell>
        <mxCell id="knXKGDjNSvYh3iaHtXok-4" style="edgeStyle=orthogonalEdgeStyle;rounded=0;orthogonalLoop=1;jettySize=auto;html=1;entryX=0.5;entryY=1;entryDx=0;entryDy=0;" edge="1" parent="1" source="knXKGDjNSvYh3iaHtXok-1" target="VXmfnzUb6QXnnJNoAkKk-14">
          <mxGeometry relative="1" as="geometry" />
        </mxCell>
        <mxCell id="knXKGDjNSvYh3iaHtXok-5" value="CF CICD" style="edgeLabel;html=1;align=center;verticalAlign=middle;resizable=0;points=[];" vertex="1" connectable="0" parent="knXKGDjNSvYh3iaHtXok-4">
          <mxGeometry x="-0.4282" y="3" relative="1" as="geometry">
            <mxPoint as="offset" />
          </mxGeometry>
        </mxCell>
        <mxCell id="knXKGDjNSvYh3iaHtXok-1" value="GitHub" style="dashed=0;outlineConnect=0;html=1;align=center;labelPosition=center;verticalLabelPosition=bottom;verticalAlign=top;shape=mxgraph.weblogos.github" vertex="1" parent="1">
          <mxGeometry x="470" y="390" width="75" height="75" as="geometry" />
        </mxCell>
      </root>
    </mxGraphModel>
  </diagram>
</mxfile>
